<svg xmlns="http://www.w3.org/2000/svg" viewBox="0 0 16 16" width="32" height="32" style="vertical-align: middle;" preserveAspectRatio="xMidYMid meet" class="shade-20"><g fill="#6a707c"><g><path fill-rule="evenodd" clip-rule="evenodd" d="M11.1824 4.99444C10.8894 4.70155 10.8894 4.22668 11.1824 3.93378C11.4754 3.64089 11.9505 3.64089 12.2435 3.93378L15.7803 7.46932C16.0732 7.76221 16.0732 8.23708 15.7803 8.52998L12.2435 12.0655C11.9505 12.3584 11.4754 12.3584 11.1824 12.0655C10.8894 11.7726 10.8894 11.2977 11.1824 11.0048L13.4379 8.75013L4.25025 8.75013C3.83589 8.75013 3.49998 8.41435 3.49998 8.00013C3.49998 7.58592 3.83589 7.25013 4.25025 7.25013L13.4389 7.25013L11.1824 4.99444Z"></path><path fill-rule="evenodd" clip-rule="evenodd" d="M6.25 16C7.76878 16 9 14.7688 9 13.25L9 11.75C9 11.3358 8.66421 11 8.25 11C7.83579 11 7.5 11.3358 7.5 11.75L7.5 13.25C7.5 13.9404 6.94036 14.5 6.25 14.5L2.75 14.5C2.05964 14.5 1.5 13.9404 1.5 13.25L1.5 2.75C1.5 2.05964 2.05964 1.5 2.75 1.5L6.25 1.5C6.94036 1.5 7.5 2.05964 7.5 2.75L7.5 4.25C7.5 4.66421 7.83579 5 8.25 5C8.66421 5 9 4.66421 9 4.25L9 2.75C9 1.23122 7.76878 -5.38182e-08 6.25 -1.20206e-07L2.75 -2.73196e-07C1.23122 -3.39584e-07 6.45564e-07 1.23122 5.79176e-07 2.75L1.20206e-07 13.25C5.38182e-08 14.7688 1.23122 16 2.75 16L6.25 16Z"></path></g></g></svg>