<svg xmlns="http://www.w3.org/2000/svg" viewBox="0 0 16 16" width="16" height="16" style="vertical-align: middle;" preserveAspectRatio="xMidYMid meet" class="flexbox-no-shrink margin-right-normal shade-20"><g fill="currentColor"><path fill-rule="evenodd" clip-rule="evenodd" d="M4.75 0.5C4.33579 0.5 4 0.835786 4 1.25C4 1.66421 4.33579 2 4.75 2H11.25C11.6642 2 12 1.66421 12 1.25C12 0.835786 11.6642 0.5 11.25 0.5H4.75ZM0.5 4.75C0.5 4.33579 0.835786 4 1.25 4H14.75C15.1642 4 15.5 4.33579 15.5 4.75C15.5 5.16421 15.1642 5.5 14.75 5.5H13.3901L11.8748 14.025C11.7396 14.8746 11.0069 15.5 10.1465 15.5H5.85351C4.99315 15.5 4.26042 14.8746 4.12524 14.025L2.60991 5.5H1.25C0.835786 5.5 0.5 5.16421 0.5 4.75ZM4.12877 5.5H11.8713L10.3934 13.7893C10.3741 13.9107 10.2694 14 10.1465 14H8.00002H5.85351C5.7306 14 5.62592 13.9107 5.60661 13.7893L4.12877 5.5Z"></path></g></svg>